<svg xmlns="http://www.w3.org/2000/svg" width="1280" height="900" viewBox="0 0 1280 900"
     font-family="'Segoe UI', system-ui, sans-serif">
  <defs>
    <filter id="neu-up" x="-35%" y="-35%" width="170%" height="170%">
      <feOffset dx="-7" dy="-7" in="SourceAlpha" result="a1"/>
      <feGaussianBlur stdDeviation="8" in="a1" result="b1"/>
      <feFlood flood-color="#1d2138" flood-opacity="0.75" result="c1"/>
      <feComposite in="c1" in2="b1" operator="in" result="light"/>
      <feOffset dx="7" dy="7" in="SourceAlpha" result="a2"/>
      <feGaussianBlur stdDeviation="8" in="a2" result="b2"/>
      <feFlood flood-color="#06070f" flood-opacity="1" result="c2"/>
      <feComposite in="c2" in2="b2" operator="in" result="dark"/>
      <feMerge>
        <feMergeNode in="light"/><feMergeNode in="dark"/><feMergeNode in="SourceGraphic"/>
      </feMerge>
    </filter>
    <filter id="neu-in" x="-5%" y="-5%" width="110%" height="110%">
      <feFlood flood-color="white" result="white"/>
      <feComposite in="white" in2="SourceAlpha" operator="out" result="inv"/>
      <feOffset dx="-4" dy="-4" in="inv" result="di_off"/>
      <feGaussianBlur stdDeviation="5" in="di_off" result="di_blur"/>
      <feFlood flood-color="#06070f" flood-opacity="0.9" result="di_col"/>
      <feComposite in="di_col" in2="di_blur" operator="in" result="di_raw"/>
      <feComposite in="di_raw" in2="SourceAlpha" operator="in" result="dark_in"/>
      <feOffset dx="4" dy="4" in="inv" result="li_off"/>
      <feGaussianBlur stdDeviation="5" in="li_off" result="li_blur"/>
      <feFlood flood-color="#1d2138" flood-opacity="0.6" result="li_col"/>
      <feComposite in="li_col" in2="li_blur" operator="in" result="li_raw"/>
      <feComposite in="li_raw" in2="SourceAlpha" operator="in" result="light_in"/>
      <feMerge>
        <feMergeNode in="SourceGraphic"/><feMergeNode in="dark_in"/><feMergeNode in="light_in"/>
      </feMerge>
    </filter>
    <filter id="neu-sm" x="-40%" y="-40%" width="180%" height="180%">
      <feOffset dx="-4" dy="-4" in="SourceAlpha" result="a1"/>
      <feGaussianBlur stdDeviation="5" in="a1" result="b1"/>
      <feFlood flood-color="#1d2138" flood-opacity="0.70" result="c1"/>
      <feComposite in="c1" in2="b1" operator="in" result="light"/>
      <feOffset dx="4" dy="4" in="SourceAlpha" result="a2"/>
      <feGaussianBlur stdDeviation="5" in="a2" result="b2"/>
      <feFlood flood-color="#06070f" flood-opacity="1" result="c2"/>
      <feComposite in="c2" in2="b2" operator="in" result="dark"/>
      <feMerge>
        <feMergeNode in="light"/><feMergeNode in="dark"/><feMergeNode in="SourceGraphic"/>
      </feMerge>
    </filter>
    <filter id="btn-glow" x="-20%" y="-30%" width="140%" height="160%">
      <feGaussianBlur stdDeviation="5" result="blur"/>
      <feMerge><feMergeNode in="blur"/><feMergeNode in="SourceGraphic"/></feMerge>
    </filter>
    <linearGradient id="g-text" x1="0%" y1="0%" x2="100%" y2="0%">
      <stop offset="0%"   stop-color="#25D366"/>
      <stop offset="100%" stop-color="#6edfa0"/>
    </linearGradient>
    <linearGradient id="g-btn" x1="0%" y1="0%" x2="100%" y2="100%">
      <stop offset="0%"   stop-color="#2bcc60"/>
      <stop offset="100%" stop-color="#1a9946"/>
    </linearGradient>
    <radialGradient id="center-haze" cx="50%" cy="50%" r="40%">
      <stop offset="0%"   stop-color="#25D366" stop-opacity="0.05"/>
      <stop offset="100%" stop-color="#25D366" stop-opacity="0"/>
    </radialGradient>
    <pattern id="grid" width="48" height="48" patternUnits="userSpaceOnUse">
      <path d="M 48 0 L 48 48 M 0 48 L 48 48" fill="none" stroke="#e8eaf6" stroke-width="0.4"/>
    </pattern>
  </defs>

  <!-- Background -->
  <rect width="1280" height="900" fill="#0e1020"/>
  <rect width="1280" height="900" fill="url(#grid)" opacity="0.045"/>
  <ellipse cx="640" cy="450" rx="460" ry="360" fill="url(#center-haze)"/>

  <!-- Stars -->
  <g fill="white">
    <circle cx="52"   cy="32"  r="0.9" opacity="0.55"/>
    <circle cx="198"  cy="19"  r="0.7" opacity="0.65"/>
    <circle cx="874"  cy="14"  r="0.7" opacity="0.6"/>
    <circle cx="1060" cy="41"  r="0.9" opacity="0.4"/>
    <circle cx="1224" cy="23"  r="0.6" opacity="0.55"/>
    <circle cx="88"   cy="800" r="0.5" opacity="0.35"/>
    <circle cx="1186" cy="780" r="0.7" opacity="0.4"/>
    <circle cx="44"   cy="860" r="0.6" opacity="0.3"/>
    <circle cx="1238" cy="840" r="0.8" opacity="0.35"/>
    <circle cx="300"  cy="750" r="0.5" opacity="0.2"/>
    <circle cx="980"  cy="760" r="0.6" opacity="0.22"/>
  </g>

  <!-- Nav -->
  <rect width="1280" height="64" fill="#0e1020" filter="url(#neu-up)"/>
  <line x1="0" y1="64" x2="1280" y2="64" stroke="#25D366" stroke-width="0.4" opacity="0.2"/>
  <rect x="28" y="18" width="30" height="28" rx="8" fill="#0e1020" filter="url(#neu-sm)"/>
  <polyline points="36,26 40,38 43,31 46,38 50,26" fill="none" stroke="#25D366" stroke-width="2" stroke-linejoin="round" stroke-linecap="round"/>
  <text x="68" y="38" font-size="15" font-weight="700" fill="#e8eaf6">WA Summarizer</text>
  <text x="820" y="37" font-size="13" fill="#e8eaf6" opacity="0.35">Upload</text>
  <text x="896" y="37" font-size="13" fill="#e8eaf6" opacity="0.35">Daily Brief</text>
  <text x="980" y="37" font-size="13" fill="#25D366">History</text>
  <line x1="980" y1="56" x2="1022" y2="56" stroke="#25D366" stroke-width="1.5" opacity="0.5"/>
  <rect x="1168" y="18" width="84" height="28" rx="8" fill="#0e1020" filter="url(#neu-sm)"/>
  <circle cx="1182" cy="32" r="7" fill="#25D366" fill-opacity="0.3"/>
  <text x="1182" y="37" text-anchor="middle" font-size="10" font-weight="700" fill="#25D366">M</text>
  <text x="1200" y="36" font-size="11" fill="#e8eaf6" opacity="0.5">Mehdi</text>

  <!-- Page header -->
  <text x="40" y="104" font-size="22" font-weight="700" fill="#e8eaf6">Summary History</text>
  <text x="40" y="124" font-size="13" fill="#e8eaf6" opacity="0.35">24 saved summaries</text>

  <!-- Search + filter row -->
  <rect x="40" y="142" width="420" height="44" rx="11" fill="#0e1020" filter="url(#neu-in)"/>
  <circle cx="64" cy="164" r="7" fill="none" stroke="#e8eaf6" stroke-width="1.3" stroke-opacity="0.22"/>
  <line x1="69" y1="169" x2="74" y2="174" stroke="#e8eaf6" stroke-width="1.3" stroke-opacity="0.22" stroke-linecap="round"/>
  <text x="84" y="169" font-size="13" fill="#e8eaf6" opacity="0.2">Search summaries...</text>

  <!-- Filter chips -->
  <rect x="478" y="148" width="48" height="32" rx="8" fill="#0e1020" filter="url(#neu-up)"/>
  <rect x="478" y="148" width="48" height="32" rx="8" fill="none" stroke="#25D366" stroke-width="0.8" opacity="0.5"/>
  <text x="502" y="168" text-anchor="middle" font-size="12" font-weight="600" fill="#25D366">All</text>
  <rect x="534" y="148" width="66" height="32" rx="8" fill="#0e1020" filter="url(#neu-sm)"/>
  <text x="567" y="168" text-anchor="middle" font-size="12" fill="#e8eaf6" opacity="0.35">Group</text>
  <rect x="608" y="148" width="88" height="32" rx="8" fill="#0e1020" filter="url(#neu-sm)"/>
  <text x="652" y="168" text-anchor="middle" font-size="12" fill="#e8eaf6" opacity="0.35">Individual</text>
  <rect x="704" y="148" width="92" height="32" rx="8" fill="#0e1020" filter="url(#neu-sm)"/>
  <text x="750" y="168" text-anchor="middle" font-size="12" fill="#e8eaf6" opacity="0.35">This week</text>

  <!-- Table container -->
  <rect x="40" y="204" width="1200" height="564" rx="16" fill="#0e1020" filter="url(#neu-up)"/>

  <!-- Table header -->
  <line x1="40" y1="252" x2="1240" y2="252" stroke="#e8eaf6" stroke-opacity="0.06"/>
  <text x="68"   y="234" font-size="11" font-weight="600" fill="#e8eaf6" opacity="0.28" letter-spacing="0.8">FILENAME</text>
  <text x="452"  y="234" font-size="11" font-weight="600" fill="#25D366" opacity="0.65" letter-spacing="0.8">TYPE ↕</text>
  <text x="556"  y="234" font-size="11" font-weight="600" fill="#e8eaf6" opacity="0.28" letter-spacing="0.8">MESSAGES</text>
  <text x="690"  y="234" font-size="11" font-weight="600" fill="#e8eaf6" opacity="0.28" letter-spacing="0.8">DATE SAVED ↕</text>
  <text x="900"  y="234" font-size="11" font-weight="600" fill="#e8eaf6" opacity="0.28" letter-spacing="0.8">SUMMARY TYPE</text>
  <text x="1120" y="234" font-size="11" font-weight="600" fill="#e8eaf6" opacity="0.28" letter-spacing="0.8">ACTIONS</text>

  <!-- Row 1 (hover highlight) -->
  <rect x="40" y="252" width="1200" height="60" fill="#25D366" fill-opacity="0.03"/>
  <line x1="40" y1="312" x2="1240" y2="312" stroke="#e8eaf6" stroke-opacity="0.04"/>
  <rect x="62" y="266" width="20" height="24" rx="3" fill="#0e1020" filter="url(#neu-sm)"/>
  <rect x="62" y="266" width="20" height="24" rx="3" fill="none" stroke="#25D366" stroke-opacity="0.28"/>
  <text x="90"   y="282" font-size="13" fill="#e8eaf6" opacity="0.82">work-project-may.txt</text>
  <text x="90"   y="298" font-size="11" fill="#e8eaf6" opacity="0.3">198 messages · 6 participants</text>
  <rect x="444" y="264" width="68" height="22" rx="7" fill="#0e1020" filter="url(#neu-sm)"/>
  <rect x="444" y="264" width="68" height="22" rx="7" fill="none" stroke="#25D366" opacity="0.38"/>
  <text x="478"  y="279" text-anchor="middle" font-size="11" fill="#25D366">Group</text>
  <text x="556"  y="282" font-size="13" fill="#e8eaf6" opacity="0.65">198</text>
  <text x="690"  y="280" font-size="13" fill="#e8eaf6" opacity="0.65">May 13, 2026</text>
  <text x="690"  y="298" font-size="11" fill="#e8eaf6" opacity="0.3">2:14 PM</text>
  <rect x="892" y="264" width="80" height="22" rx="7" fill="#0e1020" filter="url(#neu-sm)"/>
  <text x="932"  y="279" text-anchor="middle" font-size="11" fill="#e8eaf6" opacity="0.45">Detailed</text>
  <rect x="1112" y="262" width="56" height="26" rx="7" fill="#0e1020" filter="url(#neu-sm)"/>
  <text x="1140" y="279" text-anchor="middle" font-size="11" fill="#e8eaf6" opacity="0.5">View</text>
  <rect x="1176" y="262" width="52" height="26" rx="7" fill="#0e1020" filter="url(#neu-sm)"/>
  <text x="1202" y="279" text-anchor="middle" font-size="11" fill="#e8eaf6" opacity="0.28">Del</text>

  <!-- Row 2 -->
  <line x1="40" y1="312" x2="1240" y2="312" stroke="#e8eaf6" stroke-opacity="0.04"/>
  <rect x="62" y="322" width="20" height="24" rx="3" fill="#0e1020" filter="url(#neu-sm)"/>
  <text x="90"   y="338" font-size="13" fill="#e8eaf6" opacity="0.6">family-group-sunday.txt</text>
  <text x="90"   y="354" font-size="11" fill="#e8eaf6" opacity="0.26">74 messages · 9 participants</text>
  <rect x="444" y="322" width="68" height="22" rx="7" fill="#0e1020" filter="url(#neu-sm)"/>
  <text x="478"  y="337" text-anchor="middle" font-size="11" fill="#e8eaf6" opacity="0.38">Group</text>
  <text x="556"  y="338" font-size="13" fill="#e8eaf6" opacity="0.5">74</text>
  <text x="690"  y="338" font-size="13" fill="#e8eaf6" opacity="0.5">May 13, 2026</text>
  <text x="690"  y="354" font-size="11" fill="#e8eaf6" opacity="0.26">11:30 AM</text>
  <rect x="892" y="322" width="80" height="22" rx="7" fill="#0e1020" filter="url(#neu-sm)"/>
  <text x="932"  y="337" text-anchor="middle" font-size="11" fill="#e8eaf6" opacity="0.38">Short</text>
  <rect x="1112" y="320" width="56" height="26" rx="7" fill="#0e1020" filter="url(#neu-sm)"/>
  <text x="1140" y="337" text-anchor="middle" font-size="11" fill="#e8eaf6" opacity="0.45">View</text>
  <rect x="1176" y="320" width="52" height="26" rx="7" fill="#0e1020" filter="url(#neu-sm)"/>
  <text x="1202" y="337" text-anchor="middle" font-size="11" fill="#e8eaf6" opacity="0.26">Del</text>

  <!-- Row 3 -->
  <line x1="40" y1="372" x2="1240" y2="372" stroke="#e8eaf6" stroke-opacity="0.04"/>
  <rect x="62" y="382" width="20" height="24" rx="3" fill="#0e1020" filter="url(#neu-sm)"/>
  <text x="90"   y="398" font-size="13" fill="#e8eaf6" opacity="0.6">design-review-q2.txt</text>
  <text x="90"   y="414" font-size="11" fill="#e8eaf6" opacity="0.26">122 messages · 5 participants</text>
  <rect x="444" y="382" width="68" height="22" rx="7" fill="#0e1020" filter="url(#neu-sm)"/>
  <text x="478"  y="397" text-anchor="middle" font-size="11" fill="#e8eaf6" opacity="0.38">Group</text>
  <text x="556"  y="398" font-size="13" fill="#e8eaf6" opacity="0.5">122</text>
  <text x="690"  y="396" font-size="13" fill="#e8eaf6" opacity="0.5">May 12, 2026</text>
  <text x="690"  y="414" font-size="11" fill="#e8eaf6" opacity="0.26">4:45 PM</text>
  <rect x="892" y="382" width="80" height="22" rx="7" fill="#0e1020" filter="url(#neu-sm)"/>
  <text x="932"  y="397" text-anchor="middle" font-size="11" fill="#e8eaf6" opacity="0.38">Medium</text>
  <rect x="1112" y="380" width="56" height="26" rx="7" fill="#0e1020" filter="url(#neu-sm)"/>
  <text x="1140" y="397" text-anchor="middle" font-size="11" fill="#e8eaf6" opacity="0.45">View</text>
  <rect x="1176" y="380" width="52" height="26" rx="7" fill="#0e1020" filter="url(#neu-sm)"/>
  <text x="1202" y="397" text-anchor="middle" font-size="11" fill="#e8eaf6" opacity="0.26">Del</text>

  <!-- Row 4 -->
  <line x1="40" y1="432" x2="1240" y2="432" stroke="#e8eaf6" stroke-opacity="0.04"/>
  <rect x="62" y="442" width="20" height="24" rx="3" fill="#0e1020" filter="url(#neu-sm)"/>
  <text x="90"   y="458" font-size="13" fill="#e8eaf6" opacity="0.6">onboarding-sara.txt</text>
  <text x="90"   y="474" font-size="11" fill="#e8eaf6" opacity="0.26">43 messages · 2 participants</text>
  <rect x="444" y="442" width="92" height="22" rx="7" fill="#0e1020" filter="url(#neu-sm)"/>
  <text x="490"  y="457" text-anchor="middle" font-size="11" fill="#e8eaf6" opacity="0.38">Individual</text>
  <text x="556"  y="458" font-size="13" fill="#e8eaf6" opacity="0.5">43</text>
  <text x="690"  y="456" font-size="13" fill="#e8eaf6" opacity="0.5">May 12, 2026</text>
  <text x="690"  y="474" font-size="11" fill="#e8eaf6" opacity="0.26">1:10 PM</text>
  <rect x="892" y="442" width="80" height="22" rx="7" fill="#0e1020" filter="url(#neu-sm)"/>
  <text x="932"  y="457" text-anchor="middle" font-size="11" fill="#e8eaf6" opacity="0.38">Short</text>
  <rect x="1112" y="440" width="56" height="26" rx="7" fill="#0e1020" filter="url(#neu-sm)"/>
  <text x="1140" y="457" text-anchor="middle" font-size="11" fill="#e8eaf6" opacity="0.45">View</text>
  <rect x="1176" y="440" width="52" height="26" rx="7" fill="#0e1020" filter="url(#neu-sm)"/>
  <text x="1202" y="457" text-anchor="middle" font-size="11" fill="#e8eaf6" opacity="0.26">Del</text>

  <!-- Row 5 -->
  <line x1="40" y1="492" x2="1240" y2="492" stroke="#e8eaf6" stroke-opacity="0.04"/>
  <rect x="62" y="502" width="20" height="24" rx="3" fill="#0e1020" filter="url(#neu-sm)"/>
  <text x="90"   y="518" font-size="13" fill="#e8eaf6" opacity="0.6">client-kickoff-q2.txt</text>
  <text x="90"   y="534" font-size="11" fill="#e8eaf6" opacity="0.26">310 messages · 11 participants</text>
  <rect x="444" y="502" width="68" height="22" rx="7" fill="#0e1020" filter="url(#neu-sm)"/>
  <text x="478"  y="517" text-anchor="middle" font-size="11" fill="#e8eaf6" opacity="0.38">Group</text>
  <text x="556"  y="518" font-size="13" fill="#e8eaf6" opacity="0.5">310</text>
  <text x="690"  y="516" font-size="13" fill="#e8eaf6" opacity="0.5">May 11, 2026</text>
  <text x="690"  y="534" font-size="11" fill="#e8eaf6" opacity="0.26">9:05 AM</text>
  <rect x="892" y="502" width="80" height="22" rx="7" fill="#0e1020" filter="url(#neu-sm)"/>
  <text x="932"  y="517" text-anchor="middle" font-size="11" fill="#e8eaf6" opacity="0.38">Detailed</text>
  <rect x="1112" y="500" width="56" height="26" rx="7" fill="#0e1020" filter="url(#neu-sm)"/>
  <text x="1140" y="517" text-anchor="middle" font-size="11" fill="#e8eaf6" opacity="0.45">View</text>
  <rect x="1176" y="500" width="52" height="26" rx="7" fill="#0e1020" filter="url(#neu-sm)"/>
  <text x="1202" y="517" text-anchor="middle" font-size="11" fill="#e8eaf6" opacity="0.26">Del</text>

  <!-- Fade hint rows -->
  <line x1="40" y1="552" x2="1240" y2="552" stroke="#e8eaf6" stroke-opacity="0.03"/>
  <text x="68" y="584" font-size="13" fill="#e8eaf6" opacity="0.1">briefing-team-alpha.txt</text>
  <text x="68" y="622" font-size="13" fill="#e8eaf6" opacity="0.06">q1-retro-notes.txt</text>
  <text x="640" y="640" text-anchor="middle" font-size="12" fill="#e8eaf6" opacity="0.14">· · · 19 more rows</text>

  <!-- Pagination -->
  <line x1="40" y1="768" x2="1240" y2="768" stroke="#e8eaf6" stroke-opacity="0.05"/>
  <text x="56" y="792" font-size="12" fill="#e8eaf6" opacity="0.28">Showing 1–5 of 24 summaries</text>
  <rect x="966"  y="776" width="36" height="30" rx="7" fill="#0e1020" filter="url(#neu-sm)"/>
  <text x="984"  y="795" text-anchor="middle" font-size="13" fill="#e8eaf6" opacity="0.28">‹</text>
  <rect x="1010" y="776" width="36" height="30" rx="7" fill="#0e1020" filter="url(#neu-up)"/>
  <rect x="1010" y="776" width="36" height="30" rx="7" fill="none" stroke="#25D366" stroke-width="0.8" opacity="0.5"/>
  <text x="1028" y="795" text-anchor="middle" font-size="13" font-weight="700" fill="#25D366">1</text>
  <rect x="1054" y="776" width="36" height="30" rx="7" fill="#0e1020" filter="url(#neu-sm)"/>
  <text x="1072" y="795" text-anchor="middle" font-size="13" fill="#e8eaf6" opacity="0.38">2</text>
  <rect x="1098" y="776" width="36" height="30" rx="7" fill="#0e1020" filter="url(#neu-sm)"/>
  <text x="1116" y="795" text-anchor="middle" font-size="13" fill="#e8eaf6" opacity="0.38">3</text>
  <rect x="1142" y="776" width="36" height="30" rx="7" fill="#0e1020" filter="url(#neu-sm)"/>
  <text x="1160" y="795" text-anchor="middle" font-size="13" fill="#e8eaf6" opacity="0.38">4</text>
  <rect x="1186" y="776" width="36" height="30" rx="7" fill="#0e1020" filter="url(#neu-sm)"/>
  <text x="1204" y="795" text-anchor="middle" font-size="13" fill="#e8eaf6" opacity="0.28">›</text>

  <!-- Delete confirmation dialog -->
  <rect x="440" y="820" width="400" height="54" rx="11" fill="#0e1020" filter="url(#neu-up)"/>
  <text x="460" y="843" font-size="12" fill="#e8eaf6" opacity="0.5">Delete "work-project-may.txt"?</text>
  <text x="460" y="861" font-size="11" fill="#e8eaf6" opacity="0.25">This action cannot be undone.</text>
  <rect x="712" y="828" width="60" height="26" rx="7" fill="#0e1020" filter="url(#neu-sm)"/>
  <text x="742" y="845" text-anchor="middle" font-size="12" fill="#e8eaf6" opacity="0.4">Cancel</text>
  <rect x="780" y="828" width="52" height="26" rx="7" fill="#c53030" fill-opacity="0.7"/>
  <text x="806" y="845" text-anchor="middle" font-size="12" font-weight="600" fill="white">Del</text>

  <text x="40" y="888" font-size="10" fill="#e8eaf6" opacity="0.12" letter-spacing="1">05 — HISTORY PAGE</text>
</svg>
